<?xml version="1.0" standalone="no"?>
<!DOCTYPE svg PUBLIC "-//W3C//DTD SVG 20010904//EN"
 "http://www.w3.org/TR/2001/REC-SVG-20010904/DTD/svg10.dtd">
<svg version="1.0" xmlns="http://www.w3.org/2000/svg"
 width="814.000000pt" height="814.000000pt" viewBox="0 0 814.000000 814.000000"
 preserveAspectRatio="xMidYMid meet">
<metadata>
Created by potrace 1.14, written by Peter Selinger 2001-2017
</metadata>
<g transform="translate(0.000000,814.000000) scale(0.100000,-0.100000)"
fill="#000000" stroke="none">
<path d="M1324 8112 c-142 -103 -337 -421 -449 -732 -78 -215 -114 -406 -122
-650 -13 -388 58 -710 245 -1110 150 -321 447 -686 740 -909 81 -61 316 -221
325 -221 15 0 -13 55 -46 90 -39 39 -67 107 -67 159 0 15 -9 44 -20 66 -11 22
-20 46 -20 55 0 9 -7 25 -15 36 -10 13 -14 46 -15 114 0 65 -4 102 -14 116
-17 24 -22 53 -11 77 4 10 2 23 -5 32 -8 9 -12 65 -12 172 -1 129 2 164 15
190 12 23 17 57 17 121 0 76 3 91 20 107 11 10 20 30 20 44 0 14 9 40 20 56
15 23 20 47 20 98 0 54 4 74 20 94 11 14 20 33 20 42 0 10 5 22 12 29 7 7 17
27 22 44 9 25 17 34 39 36 30 4 41 21 62 97 9 34 7 50 -12 107 -13 37 -23 72
-23 78 0 6 26 10 60 10 57 0 62 2 96 40 20 22 45 40 55 40 20 0 26 24 9 35
-20 12 -9 44 24 72 18 15 45 45 59 65 14 21 45 60 70 88 38 42 51 50 79 50 22
0 42 7 53 20 16 18 31 20 141 20 94 0 126 -3 137 -15 8 -7 26 -17 40 -21 15
-3 29 -15 32 -25 4 -10 10 -19 14 -19 5 0 24 -30 42 -67 19 -38 46 -79 61 -93
25 -23 28 -32 30 -107 l3 -83 1468 0 1468 0 -6 -22 c-42 -144 -171 -405 -266
-543 -53 -77 -167 -210 -199 -232 -31 -22 -10 -53 35 -53 22 0 41 -8 54 -22
29 -31 73 -58 94 -58 26 0 87 -49 87 -69 0 -9 13 -22 30 -28 17 -6 35 -23 42
-40 6 -15 23 -41 37 -56 24 -26 26 -35 26 -120 l-1 -92 -64 -65 c-36 -36 -72
-74 -80 -85 -35 -47 -76 -65 -148 -65 -56 0 -72 -4 -87 -20 -10 -11 -25 -20
-32 -20 -8 0 -33 -15 -56 -34 -56 -44 -80 -56 -116 -56 -19 0 -43 -11 -64 -30
-19 -16 -40 -30 -47 -30 -6 0 -23 -9 -37 -20 -14 -11 -38 -20 -53 -20 -15 0
-35 -9 -45 -20 -10 -11 -29 -20 -43 -20 -14 0 -49 -16 -79 -36 -30 -20 -72
-38 -94 -41 -29 -4 -42 -12 -52 -31 -8 -17 -26 -30 -52 -38 -22 -7 -53 -19
-70 -28 -16 -9 -36 -16 -44 -16 -8 0 -19 -7 -25 -15 -6 -9 -29 -18 -51 -22
-22 -3 -47 -11 -55 -18 -8 -7 -32 -15 -52 -18 -21 -3 -61 -21 -91 -41 -67 -45
-135 -76 -167 -76 -14 0 -34 -6 -45 -14 -11 -7 -33 -16 -49 -20 -16 -4 -53
-23 -81 -42 -42 -27 -62 -34 -101 -34 -27 0 -57 7 -68 15 -14 11 -22 11 -37 2
-14 -9 -23 -9 -38 0 -10 6 -39 14 -65 18 -56 9 -96 38 -96 71 0 18 -9 27 -34
38 -45 19 -56 41 -58 121 -1 36 -5 68 -10 71 -4 3 -8 28 -8 56 0 49 25 107 54
125 6 5 20 21 30 36 10 16 39 38 64 49 26 11 55 27 64 35 9 8 33 18 53 23 29
7 39 5 53 -10 14 -15 34 -18 130 -18 111 0 113 0 97 18 -13 14 -22 17 -34 10
-36 -18 -471 181 -876 402 -190 104 -504 315 -559 377 -21 23 -36 27 -36 10 0
-6 -7 -17 -15 -25 -10 -11 -15 -38 -16 -87 -1 -57 -14 -344 -19 -417 -4 -51
37 -156 77 -198 7 -7 13 -27 13 -43 0 -35 20 -76 49 -103 15 -14 21 -31 21
-61 0 -73 11 -105 40 -120 16 -8 31 -26 34 -42 13 -49 88 -143 115 -143 23 0
81 -70 81 -97 0 -13 17 -47 37 -76 36 -50 37 -55 41 -154 2 -57 2 -113 -2
-125 -3 -13 -22 -34 -43 -47 -61 -39 -102 -82 -114 -118 -15 -45 -41 -50 -242
-46 -154 3 -171 6 -198 25 -16 12 -29 29 -29 38 0 21 -53 80 -72 80 -22 0 -78
54 -78 76 0 10 -9 33 -20 49 -11 17 -20 36 -20 44 0 8 -7 22 -16 32 -15 17
-19 17 -48 2 -58 -29 -251 -157 -361 -239 -511 -381 -869 -909 -1026 -1514
-44 -170 -59 -298 -66 -561 -9 -355 17 -581 96 -849 137 -462 387 -876 560
-927 48 -14 118 -15 610 -8 445 6 561 10 583 21 45 23 78 81 78 136 0 54 -34
125 -190 393 -183 317 -356 673 -377 776 l-5 29 1972 0 1972 0 -5 -28 c-8 -38
-80 -206 -167 -386 -66 -137 -269 -508 -310 -566 -49 -69 -84 -156 -83 -206 0
-69 38 -135 89 -154 12 -5 274 -12 583 -15 l561 -7 55 26 c166 82 424 522 535
914 79 279 107 528 97 862 -16 514 -153 939 -444 1377 -256 384 -712 773
-1165 991 -65 32 -118 60 -118 64 0 3 57 37 128 74 219 116 463 275 631 411
86 71 331 314 383 380 l40 52 -3 266 c-4 263 -3 267 18 283 29 23 42 89 19 98
-18 7 -49 -13 -40 -27 4 -7 -14 -86 -23 -98 -9 -12 -33 26 -33 53 0 19 -8 38
-20 49 -11 9 -20 23 -20 31 0 7 -9 25 -20 39 -13 16 -23 49 -27 93 -7 61 -11
69 -29 70 -34 2 -44 13 -44 47 0 23 -10 43 -33 67 -18 19 -39 54 -45 78 -7 23
-19 42 -26 42 -8 0 -21 17 -29 39 -10 24 -29 46 -51 59 -45 26 -70 82 -54 117
9 19 7 29 -6 49 -22 35 -23 198 -1 216 9 7 15 29 15 51 0 39 20 69 47 69 9 0
33 19 55 42 35 39 42 42 92 42 31 1 60 7 71 16 31 26 86 18 125 -18 31 -28 85
-59 146 -82 12 -5 25 -21 29 -37 8 -34 21 -43 62 -43 42 0 103 -68 103 -115 0
-32 23 -69 89 -146 23 -27 34 -50 35 -74 1 -26 11 -43 48 -79 26 -25 49 -42
52 -38 16 26 28 225 23 385 -7 233 -39 410 -116 629 -65 187 -190 436 -287
569 -57 78 -150 176 -186 195 -23 12 -127 14 -629 14 l-601 0 -33 -33 c-26
-26 -34 -44 -40 -89 -8 -67 -6 -71 112 -238 185 -262 344 -522 328 -538 -4 -4
-843 -8 -1866 -10 -1544 -2 -1859 0 -1859 11 0 28 174 307 299 480 180 249
190 271 155 340 -9 18 -26 42 -37 55 l-20 22 -612 0 -612 0 -39 -28z m3015
-4561 c471 -224 854 -447 1081 -628 145 -115 327 -316 414 -455 73 -119 192
-379 178 -392 -7 -7 -3922 -8 -3922 -1 0 17 57 151 101 235 120 234 338 482
586 666 217 162 561 358 888 505 65 30 185 84 265 120 80 37 148 67 152 68 4
0 120 -52 257 -118z"/>
<path d="M6614 6875 c-11 -28 6 -35 69 -29 106 11 102 44 -6 44 -41 0 -59 -4
-63 -15z"/>
<path d="M6526 6725 c-3 -8 4 -21 15 -29 17 -12 28 -12 62 -2 25 7 43 19 45
29 3 14 -5 17 -56 17 -44 0 -61 -4 -66 -15z"/>
<path d="M6912 6488 c3 -7 13 -15 24 -17 16 -3 17 -1 5 13 -16 19 -34 21 -29
4z"/>
<path d="M7145 6437 c-25 -19 -13 -47 20 -47 23 0 26 4 23 27 -4 32 -17 38
-43 20z"/>
<path d="M6892 5690 c-7 -11 -19 -20 -28 -20 -26 0 -9 -25 19 -28 21 -3 27 1
27 17 0 10 3 26 6 35 9 23 -9 20 -24 -4z"/>
<path d="M6917 5533 c-12 -12 -7 -38 14 -62 24 -30 27 -27 21 27 -4 39 -18 53
-35 35z"/>
</g>
</svg>
